<global>
amp_veltrack=0
ampeg_release=5.0

<group>
group_label=RR1
seq_length=4
seq_position=1

<region>
hivel=100
key=D4
lovel=76
offset=5244
sample=SmallCym_Mallets_Hit_Damped_F_D4_RR1.opus

<region>
hivel=127
key=D4
lovel=101
offset=4014
sample=SmallCym_Mallets_Hit_Damped_FF_D4_RR1.opus

<region>
hivel=75
key=D4
lovel=51
offset=5555
sample=SmallCym_Mallets_Hit_Damped_MF_D4_RR1.opus

<region>
hivel=50
key=D4
lovel=26
offset=5049
sample=SmallCym_Mallets_Hit_Damped_MP_D4_RR1.opus

<region>
hivel=25
key=D4
lovel=0
offset=11428
sample=SmallCym_Mallets_Hit_Damped_P_D4_RR1.opus

<group>
group_label=RR2
seq_length=4
seq_position=2

<region>
hivel=100
key=D4
lovel=76
offset=5576
sample=SmallCym_Mallets_Hit_Damped_F_D4_RR2.opus

<region>
hivel=127
key=D4
lovel=101
offset=6598
sample=SmallCym_Mallets_Hit_Damped_FF_D4_RR2.opus

<region>
hivel=75
key=D4
lovel=51
offset=5597
sample=SmallCym_Mallets_Hit_Damped_MF_D4_RR2.opus

<region>
hivel=50
key=D4
lovel=26
offset=5293
sample=SmallCym_Mallets_Hit_Damped_MP_D4_RR2.opus

<region>
hivel=25
key=D4
lovel=0
sample=SmallCym_Mallets_Hit_Damped_P_D4_RR2.opus

<group>
group_label=RR3
seq_length=4
seq_position=3

<region>
hivel=100
key=D4
lovel=76
offset=5636
sample=SmallCym_Mallets_Hit_Damped_F_D4_RR3.opus

<region>
hivel=127
key=D4
lovel=101
offset=5533
sample=SmallCym_Mallets_Hit_Damped_FF_D4_RR3.opus

<region>
hivel=75
key=D4
lovel=51
offset=5600
sample=SmallCym_Mallets_Hit_Damped_MF_D4_RR3.opus

<region>
hivel=50
key=D4
lovel=26
offset=4327
sample=SmallCym_Mallets_Hit_Damped_MP_D4_RR3.opus

<region>
hivel=25
key=D4
lovel=0
sample=SmallCym_Mallets_Hit_Damped_P_D4_RR3.opus

<group>
group_label=RR4
seq_length=4
seq_position=4

<region>
hivel=100
key=D4
lovel=76
offset=5601
sample=SmallCym_Mallets_Hit_Damped_F_D4_RR4.opus

<region>
hivel=127
key=D4
lovel=101
offset=4900
sample=SmallCym_Mallets_Hit_Damped_FF_D4_RR4.opus

<region>
hivel=75
key=D4
lovel=51
offset=5590
sample=SmallCym_Mallets_Hit_Damped_MF_D4_RR4.opus

<region>
hivel=50
key=D4
lovel=26
offset=1136
sample=SmallCym_Mallets_Hit_Damped_MP_D4_RR4.opus

<region>
hivel=25
key=D4
lovel=0
sample=SmallCym_Mallets_Hit_Damped_P_D4_RR4.opus
